<?xml version="1.0" encoding="UTF-8"?>
<svg id="_1500_x_1500_px_Geometric_Logo_1" data-name="1500 x 1500 px Geometric Logo 1" xmlns="http://www.w3.org/2000/svg" viewBox="0 0 1500 1500">
  <defs>
    <style>
      .cls-1 {
        fill: #fff;
        fill-rule: evenodd;
      }

      .cls-1, .cls-2, .cls-3, .cls-4, .cls-5, .cls-6 {
        stroke-width: 0px;
      }

      .cls-7 {
        fill: #464455;
        stroke: #e5e5e5;
        stroke-miterlimit: 10;
        stroke-width: 14px;
      }

      .cls-2 {
        fill: #1c8f5a;
      }

      .cls-3 {
        fill: #23a566;
      }

      .cls-4 {
        fill: #8ed1b1;
      }

      .cls-5 {
        fill: #ff7c00;
      }

      .cls-6 {
        fill: #ffa300;
      }
    </style>
  </defs>
  <g>
    <path class="cls-6" d="m544.92,829.16c-25.14.21-50.28.6-75.41.5-6.12-.03-10.51,1.67-14.84,6.09-21.81,22.22-43.97,44.09-65.96,66.14-6.51,6.53-13.26,11.82-23.24,7.41-9.73-4.3-11.07-12.58-11.03-21.92.14-32.39-.07-64.79.08-97.18.37-78.87,61.52-138.93,140.4-137.41,27.73.53,53.03,9.61,75.33,26.21,4.95,3.68,7.96,4.39,13.66.39,44.39-31.13,92.08-36.51,140.62-12.13,49.13,24.67,74.05,66.15,75.25,121.43.12,5.66.12,11.32,0,16.98-.3,13.27-8.76,23.76-21.79,23.83-56.27.32-112.55-.14-168.82-.31,9.26-3.97,16.09-10.38,16.77-20.79,2.95-45.26-8.22-85.5-41.91-118-5.41-5.22-8.73-4.23-13.11-.33-10.66,9.49-18.5,21.18-25.62,33.4-13,22.32-16.25,46.97-17.36,72.19-.64,14.52,2.89,26.6,16.97,33.51Z"/>
    <path class="cls-6" d="m737.69,561.42c-.04,39.55-31.07,70.52-70.59,70.44-38.91-.07-71.06-32.16-70.91-70.77.15-38.55,32.64-70.82,71.23-70.76,39.06.06,70.31,31.67,70.27,71.08Z"/>
    <path class="cls-6" d="m419.93,560.88c.12-39.28,31.75-70.81,70.78-70.54,38.6.26,71.12,33.07,70.68,71.31-.45,38.98-32.29,70.28-71.44,70.22-39.32-.06-70.14-31.31-70.02-70.98Z"/>
    <path class="cls-5" d="m544.92,829.16c-14.08-6.91-17.62-18.99-16.97-33.51,1.12-25.22,4.37-49.86,17.36-72.19,7.11-12.22,14.95-23.91,25.62-33.4,4.38-3.9,7.7-4.89,13.11.33,33.69,32.5,44.86,72.74,41.91,118-.68,10.4-7.51,16.81-16.77,20.79-21.42.92-42.84,1-64.26-.02Z"/>
  </g>
  <g>
    <path class="cls-3" d="m1052.23,896.32c-.01,13.15-10.67,23.81-23.82,23.82h-254.19c-13.15,0-23.82-10.65-23.84-23.8v-372.04c-.01-13.16,10.65-23.83,23.8-23.84h163.17l114.88,117.16v278.71Z"/>
    <path class="cls-2" d="m949.99,614.56l102.24,97.72v-95.35h-90.56c-3.95.04-7.85-.94-11.31-2.85l-.36.47Z"/>
    <path class="cls-4" d="m1052.23,617.42h-90.81c-13.15-.01-23.81-10.67-23.82-23.82v-93.79l114.63,117.61Z"/>
    <path class="cls-1" d="m979.55,842.77h-157.07v-136.19h157.07v136.19Zm-68.77-116.55v23.84h49.47v-23.8l-49.47-.04Zm0,38.86v22.78h49.47v-22.89l-49.47.11Zm0,37.3v21.09h49.47v-21.2l-49.47.11Zm-19.42,20.97v-21.09h-49.45v21.09h49.45Zm0-35.74v-22.65h-49.45v22.76l49.45-.11Zm0-37.3v-24.09h-49.45v23.84l49.45.25Z"/>
  </g>
  <path class="cls-7" d="m792.46,903.2c-2.83,0-5.71-.72-8.34-2.25l-29.03-16.81c-.29-.16-.57-.33-.84-.51-.01,0-.03-.02-.04-.03,0,0,0,0,0,0-2.05-1.33-3.72-3.04-4.97-4.99-1.15-1.8-1.97-3.84-2.37-6.05-.31-1.7-.35-3.45-.11-5.19,0,0,0,0,0,0,0-.01,0-.03,0-.04,0,0,0-.01,0-.02,0,0,0-.02,0-.03,0,0,0-.02,0-.03v-.02s0-.02,0-.04c0,0,0,0,0-.01,0-.01,0-.03,0-.04,0,0,0,0,0,0,.08-.57.2-1.13.34-1.69h0s0-.03,0-.04c0,0,0-.02,0-.03v-.02s.01-.03.02-.04c0,0,0,0,0,0,.41-1.54,1.04-3,1.86-4.34l17.81-29.83c4.72-7.9,14.95-10.48,22.85-5.77,5.91,3.53,8.85,10.15,7.97,16.57,22.33-11.73,39.89-31.55,48.88-56.45,19.42-53.75-8.15-113.38-61.44-132.93-8.64-3.17-13.08-12.74-9.91-21.39,3.17-8.64,12.75-13.08,21.39-9.91,70.47,25.84,106.94,104.6,81.32,175.55-8.82,24.42-24.23,45.69-44.56,61.51-8.81,6.86-18.37,12.57-28.46,17.05,4.7,5.23,5.74,13.08,2.02,19.5-3.09,5.34-8.69,8.32-14.44,8.32Zm-83.31-23.44c-1.91,0-3.84-.33-5.74-1.02-70.47-25.84-106.95-104.6-81.31-175.55,8.82-24.42,24.23-45.69,44.56-61.52,8.81-6.86,18.37-12.57,28.46-17.05-4.7-5.23-5.74-13.08-2.02-19.49,4.61-7.97,14.81-10.69,22.77-6.07l29.01,16.8c.37.21.73.43,1.08.67,1.15.76,2.17,1.65,3.06,2.62,0,0,0,0,0,0,0,.01.02.02.03.03h.01s.01.03.02.04c0,0,.01.01.02.02,0,0,0,.01.01.02,0,0,.02.02.02.03h0s.02.03.03.04c0,0,0,0,0,0,.54.6,1.02,1.24,1.46,1.9,0,0,0,0,0,0,0,0,0,.01.01.02,1.24,1.89,2.11,4.05,2.5,6.41.34,2.04.3,4.14-.14,6.21,0,0,0,0,0,0,0,0,0,.01,0,.02-.4,1.85-1.11,3.6-2.07,5.18l-17.79,29.8c-4.72,7.9-14.95,10.49-22.85,5.77-5.91-3.53-8.85-10.15-7.97-16.57-22.33,11.73-39.89,31.55-48.88,56.45-19.42,53.75,8.15,113.39,61.44,132.93,8.64,3.17,13.08,12.74,9.91,21.39-2.48,6.75-8.86,10.93-15.65,10.93Z"/>
</svg>